<mxfile host="Electron" modified="2023-12-03T00:21:58.026Z" agent="Mozilla/5.0 (Windows NT 10.0; Win64; x64) AppleWebKit/537.36 (KHTML, like Gecko) draw.io/22.1.2 Chrome/114.0.5735.289 Electron/25.9.4 Safari/537.36" etag="36prX6OYiymcawFxImsK" version="22.1.2" type="device">
  <diagram name="Page-1" id="hxqhiS6AUWPl3seQIxeo">
    <mxGraphModel dx="1001" dy="744" grid="1" gridSize="10" guides="1" tooltips="1" connect="1" arrows="1" fold="1" page="1" pageScale="1" pageWidth="827" pageHeight="1169" math="0" shadow="0">
      <root>
        <mxCell id="0" />
        <mxCell id="1" parent="0" />
        <mxCell id="WQtKiX4kj4n_HL68g5W9-5" style="edgeStyle=orthogonalEdgeStyle;rounded=0;orthogonalLoop=1;jettySize=auto;html=1;exitX=0.5;exitY=1;exitDx=0;exitDy=0;entryX=0.5;entryY=0;entryDx=0;entryDy=0;curved=1;" edge="1" parent="1" source="WQtKiX4kj4n_HL68g5W9-1" target="WQtKiX4kj4n_HL68g5W9-4">
          <mxGeometry relative="1" as="geometry" />
        </mxCell>
        <mxCell id="WQtKiX4kj4n_HL68g5W9-1" value="Daily Tweets" style="rounded=1;whiteSpace=wrap;html=1;fillColor=#d5e8d4;strokeColor=#82b366;" vertex="1" parent="1">
          <mxGeometry x="320" y="10" width="200" height="60" as="geometry" />
        </mxCell>
        <mxCell id="WQtKiX4kj4n_HL68g5W9-11" style="edgeStyle=orthogonalEdgeStyle;rounded=0;orthogonalLoop=1;jettySize=auto;html=1;exitX=0.5;exitY=1;exitDx=0;exitDy=0;entryX=0.5;entryY=0;entryDx=0;entryDy=0;" edge="1" parent="1" source="WQtKiX4kj4n_HL68g5W9-4" target="WQtKiX4kj4n_HL68g5W9-10">
          <mxGeometry relative="1" as="geometry" />
        </mxCell>
        <mxCell id="WQtKiX4kj4n_HL68g5W9-4" value="Remove tweets from the operator" style="rounded=1;whiteSpace=wrap;html=1;fillColor=#f5f5f5;strokeColor=#666666;fontColor=#333333;" vertex="1" parent="1">
          <mxGeometry x="320" y="130" width="200" height="60" as="geometry" />
        </mxCell>
        <mxCell id="WQtKiX4kj4n_HL68g5W9-13" style="edgeStyle=orthogonalEdgeStyle;rounded=0;orthogonalLoop=1;jettySize=auto;html=1;exitX=0.5;exitY=1;exitDx=0;exitDy=0;entryX=0.5;entryY=0;entryDx=0;entryDy=0;" edge="1" parent="1" source="WQtKiX4kj4n_HL68g5W9-10" target="WQtKiX4kj4n_HL68g5W9-12">
          <mxGeometry relative="1" as="geometry" />
        </mxCell>
        <mxCell id="WQtKiX4kj4n_HL68g5W9-10" value="Remove tweets about delays" style="rounded=1;whiteSpace=wrap;html=1;fillColor=#f5f5f5;strokeColor=#666666;fontColor=#333333;" vertex="1" parent="1">
          <mxGeometry x="320" y="250" width="200" height="60" as="geometry" />
        </mxCell>
        <mxCell id="WQtKiX4kj4n_HL68g5W9-16" style="edgeStyle=orthogonalEdgeStyle;rounded=0;orthogonalLoop=1;jettySize=auto;html=1;exitX=0.5;exitY=1;exitDx=0;exitDy=0;entryX=0.5;entryY=0;entryDx=0;entryDy=0;curved=1;" edge="1" parent="1" source="WQtKiX4kj4n_HL68g5W9-12" target="WQtKiX4kj4n_HL68g5W9-14">
          <mxGeometry relative="1" as="geometry" />
        </mxCell>
        <mxCell id="WQtKiX4kj4n_HL68g5W9-17" style="edgeStyle=orthogonalEdgeStyle;rounded=0;orthogonalLoop=1;jettySize=auto;html=1;exitX=0.5;exitY=1;exitDx=0;exitDy=0;entryX=0.5;entryY=0;entryDx=0;entryDy=0;curved=1;" edge="1" parent="1" source="WQtKiX4kj4n_HL68g5W9-12" target="WQtKiX4kj4n_HL68g5W9-15">
          <mxGeometry relative="1" as="geometry" />
        </mxCell>
        <mxCell id="WQtKiX4kj4n_HL68g5W9-12" value="Irony Detection" style="rounded=1;whiteSpace=wrap;html=1;fillColor=#dae8fc;strokeColor=#6c8ebf;fontStyle=1" vertex="1" parent="1">
          <mxGeometry x="320" y="370" width="200" height="60" as="geometry" />
        </mxCell>
        <mxCell id="WQtKiX4kj4n_HL68g5W9-27" style="edgeStyle=orthogonalEdgeStyle;rounded=0;orthogonalLoop=1;jettySize=auto;html=1;exitX=0.5;exitY=1;exitDx=0;exitDy=0;entryX=0.5;entryY=0;entryDx=0;entryDy=0;curved=1;" edge="1" parent="1" source="WQtKiX4kj4n_HL68g5W9-14" target="WQtKiX4kj4n_HL68g5W9-26">
          <mxGeometry relative="1" as="geometry" />
        </mxCell>
        <mxCell id="WQtKiX4kj4n_HL68g5W9-14" value="Ironic Tweets" style="rounded=1;whiteSpace=wrap;html=1;fillColor=#ffe6cc;strokeColor=#d79b00;" vertex="1" parent="1">
          <mxGeometry x="200" y="490" width="160" height="60" as="geometry" />
        </mxCell>
        <mxCell id="WQtKiX4kj4n_HL68g5W9-21" style="edgeStyle=orthogonalEdgeStyle;rounded=0;orthogonalLoop=1;jettySize=auto;html=1;exitX=0.5;exitY=1;exitDx=0;exitDy=0;entryX=0.5;entryY=0;entryDx=0;entryDy=0;" edge="1" parent="1" source="WQtKiX4kj4n_HL68g5W9-15" target="WQtKiX4kj4n_HL68g5W9-20">
          <mxGeometry relative="1" as="geometry" />
        </mxCell>
        <mxCell id="WQtKiX4kj4n_HL68g5W9-15" value="Non-Ironic Tweets" style="rounded=1;whiteSpace=wrap;html=1;fillColor=#E3E3E3;strokeColor=#666666;gradientColor=none;" vertex="1" parent="1">
          <mxGeometry x="480" y="490" width="160" height="60" as="geometry" />
        </mxCell>
        <mxCell id="WQtKiX4kj4n_HL68g5W9-24" style="edgeStyle=orthogonalEdgeStyle;rounded=0;orthogonalLoop=1;jettySize=auto;html=1;exitX=0.5;exitY=1;exitDx=0;exitDy=0;entryX=0.5;entryY=0;entryDx=0;entryDy=0;curved=1;" edge="1" parent="1" source="WQtKiX4kj4n_HL68g5W9-20" target="WQtKiX4kj4n_HL68g5W9-22">
          <mxGeometry relative="1" as="geometry" />
        </mxCell>
        <mxCell id="WQtKiX4kj4n_HL68g5W9-25" style="edgeStyle=orthogonalEdgeStyle;rounded=0;orthogonalLoop=1;jettySize=auto;html=1;exitX=0.5;exitY=1;exitDx=0;exitDy=0;entryX=0.5;entryY=0;entryDx=0;entryDy=0;curved=1;" edge="1" parent="1" source="WQtKiX4kj4n_HL68g5W9-20" target="WQtKiX4kj4n_HL68g5W9-23">
          <mxGeometry relative="1" as="geometry" />
        </mxCell>
        <mxCell id="WQtKiX4kj4n_HL68g5W9-20" value="Sentiment Analysis" style="rounded=1;whiteSpace=wrap;html=1;fontStyle=1;fillColor=#dae8fc;strokeColor=#6c8ebf;" vertex="1" parent="1">
          <mxGeometry x="480" y="610" width="160" height="60" as="geometry" />
        </mxCell>
        <mxCell id="WQtKiX4kj4n_HL68g5W9-28" style="edgeStyle=orthogonalEdgeStyle;rounded=0;orthogonalLoop=1;jettySize=auto;html=1;exitX=0.5;exitY=1;exitDx=0;exitDy=0;entryX=0.5;entryY=0;entryDx=0;entryDy=0;curved=1;" edge="1" parent="1" source="WQtKiX4kj4n_HL68g5W9-22" target="WQtKiX4kj4n_HL68g5W9-26">
          <mxGeometry relative="1" as="geometry" />
        </mxCell>
        <mxCell id="WQtKiX4kj4n_HL68g5W9-22" value="Negative Sentiment" style="rounded=1;whiteSpace=wrap;html=1;fillColor=#f8cecc;strokeColor=#b85450;" vertex="1" parent="1">
          <mxGeometry x="340" y="730" width="160" height="60" as="geometry" />
        </mxCell>
        <mxCell id="WQtKiX4kj4n_HL68g5W9-23" value="Positive and Neutral Sentiment" style="rounded=1;whiteSpace=wrap;html=1;fillColor=#fff2cc;strokeColor=#d6b656;" vertex="1" parent="1">
          <mxGeometry x="630" y="730" width="160" height="60" as="geometry" />
        </mxCell>
        <mxCell id="WQtKiX4kj4n_HL68g5W9-30" style="edgeStyle=orthogonalEdgeStyle;rounded=0;orthogonalLoop=1;jettySize=auto;html=1;exitX=0.5;exitY=1;exitDx=0;exitDy=0;entryX=0.5;entryY=0;entryDx=0;entryDy=0;" edge="1" parent="1" source="WQtKiX4kj4n_HL68g5W9-26" target="WQtKiX4kj4n_HL68g5W9-29">
          <mxGeometry relative="1" as="geometry" />
        </mxCell>
        <mxCell id="WQtKiX4kj4n_HL68g5W9-26" value="LLM Analysis" style="rounded=1;whiteSpace=wrap;html=1;fillColor=#dae8fc;strokeColor=#6c8ebf;fontStyle=1" vertex="1" parent="1">
          <mxGeometry x="200" y="850" width="160" height="60" as="geometry" />
        </mxCell>
        <mxCell id="WQtKiX4kj4n_HL68g5W9-29" value="Actionable Insights" style="rounded=1;whiteSpace=wrap;html=1;fillColor=#e1d5e7;strokeColor=#9673a6;" vertex="1" parent="1">
          <mxGeometry x="200" y="970" width="160" height="60" as="geometry" />
        </mxCell>
        <mxCell id="WQtKiX4kj4n_HL68g5W9-37" value="Start" style="rounded=1;whiteSpace=wrap;html=1;fillColor=#d5e8d4;strokeColor=#82b366;" vertex="1" parent="1">
          <mxGeometry x="10" y="10" width="70" height="30" as="geometry" />
        </mxCell>
        <mxCell id="WQtKiX4kj4n_HL68g5W9-38" value="Output" style="rounded=1;whiteSpace=wrap;html=1;fillColor=#e1d5e7;strokeColor=#9673a6;" vertex="1" parent="1">
          <mxGeometry x="10" y="130" width="70" height="30" as="geometry" />
        </mxCell>
        <mxCell id="WQtKiX4kj4n_HL68g5W9-40" value="Pre-Processing" style="rounded=1;whiteSpace=wrap;html=1;fillColor=#f5f5f5;strokeColor=#666666;fontColor=#333333;" vertex="1" parent="1">
          <mxGeometry x="10" y="50" width="70" height="30" as="geometry" />
        </mxCell>
        <mxCell id="WQtKiX4kj4n_HL68g5W9-41" value="Models" style="rounded=1;whiteSpace=wrap;html=1;fillColor=#dae8fc;strokeColor=#6c8ebf;fontStyle=1" vertex="1" parent="1">
          <mxGeometry x="10" y="90" width="70" height="30" as="geometry" />
        </mxCell>
      </root>
    </mxGraphModel>
  </diagram>
</mxfile>
